<?xml version="1.0" encoding="UTF-8" standalone="no"?>
<!DOCTYPE svg PUBLIC "-//W3C//DTD SVG 1.1//EN" "http://www.w3.org/Graphics/SVG/1.1/DTD/svg11.dtd">
<svg width="100%" height="100%" viewBox="0 0 855 664" version="1.1" xmlns="http://www.w3.org/2000/svg" xmlns:xlink="http://www.w3.org/1999/xlink" xml:space="preserve" xmlns:serif="http://www.serif.com/" style="fill-rule:evenodd;clip-rule:evenodd;stroke-linejoin:round;stroke-miterlimit:2;">
    <g transform="matrix(0.407679,0.00377603,-0.00377603,0.407679,114.756,482.478)">
        <g transform="matrix(0.347594,0,0,0.327445,-86.3042,103.504)">
            <path d="M876.03,689.45C875.05,690.82 874.06,692.18 873.08,693.53C870.263,695.47 866.921,696.507 863.5,696.5L336.5,696.5C333.232,696.503 330.032,695.558 327.29,693.78C326.38,692.58 325.48,691.37 324.57,690.16L325.48,689.66L592.27,541.78C597.076,539.122 602.927,539.114 607.74,541.76L875.13,688.95L876.03,689.45Z" style="fill:rgb(134,153,135);fill-rule:nonzero;"/>
        </g>
        <g transform="matrix(0.347594,0,0,0.327445,-86.3042,103.504)">
            <path d="M863.5,378.5L632.282,244.97C612.514,233.553 588.08,233.541 568.3,244.938L336.5,378.5C327.179,378.513 319.513,386.179 319.5,395.5L319.5,679.5C319.511,688.822 327.178,696.489 336.5,696.5L863.5,696.5C872.82,696.484 880.484,688.82 880.5,679.5L880.5,395.5C880.487,386.179 872.821,378.513 863.5,378.5ZM878.5,679.5C878.48,687.721 871.721,694.48 863.5,694.5L336.5,694.5C328.277,694.485 321.515,687.723 321.5,679.5L321.5,395.5C321.51,387.275 328.275,380.51 336.5,380.5L568.3,246.938C588.08,235.541 612.514,235.553 632.282,246.97L863.5,380.5C871.725,380.51 878.49,387.275 878.5,395.5L878.5,679.5Z" style="fill:rgb(63,61,86);fill-rule:nonzero;"/>
        </g>
        <g transform="matrix(0.347594,0,0,0.327445,-86.3042,103.504)">
            <path d="M600.3,539.18C598.558,539.186 596.828,538.896 595.184,538.322L594.881,538.215L594.82,537.542C594.632,537.635 594.441,537.724 594.251,537.808L594.05,537.896L593.848,537.808C593.427,537.623 593.009,537.413 592.605,537.186L408.5,433.732L408.5,222.5C408.511,212.356 416.856,204.011 427,204L773,204C783.144,204.011 791.489,212.356 791.5,222.5L791.5,434.002L791.245,434.146L607.995,537.186C605.643,538.497 602.993,539.184 600.3,539.18Z" style="fill:white;fill-rule:nonzero;"/>
        </g>
        <g transform="matrix(0.347594,0,0,0.327445,-86.3042,103.504)">
            <path d="M600.3,539.68C598.502,539.686 596.715,539.386 595.018,538.793L594.412,538.58L594.386,538.294L594.05,538.442L593.647,538.266C593.211,538.074 592.778,537.857 592.359,537.621L408,434.025L408,222.5C408.012,212.081 416.581,203.512 427,203.5L773,203.5C783.419,203.512 791.988,212.081 792,222.5L792,434.295L608.24,537.622C605.813,538.975 603.079,539.684 600.3,539.68ZM596.286,537.104C599.962,538.159 603.909,537.718 607.261,535.878L790,433.125L790,222.5C789.99,213.178 782.322,205.51 773,205.5L427,205.5C417.678,205.51 410.01,213.178 410,222.5L410,432.854L421.99,439.588L593.34,535.878C593.573,536.01 593.81,536.133 594.05,536.249C594.29,536.133 594.527,536.01 594.759,535.879L596.106,535.12L596.286,537.104Z" style="fill:rgb(63,61,86);fill-rule:nonzero;"/>
        </g>
        <g transform="matrix(0.347594,0,0,0.327445,-86.3042,103.504)">
            <path d="M876.07,385.88L803.5,426.68L791,433.71L607.75,536.75C605.473,538.02 602.907,538.685 600.3,538.68C598.615,538.685 596.941,538.404 595.35,537.85C594.907,537.709 594.473,537.542 594.05,537.35C593.64,537.17 593.24,536.97 592.85,536.75L421.5,440.46L409,433.44L324.08,385.72C323.603,385.446 323.432,384.83 323.7,384.35C323.969,383.873 324.583,383.702 325.06,383.97L409,431.14L421.5,438.16L593.83,535C594.402,535.321 594.997,535.598 595.61,535.83C595.87,535.93 596.14,536.02 596.41,536.1C599.867,537.161 603.613,536.763 606.77,535L791,431.42L803.5,424.39L875.09,384.14C875.239,384.056 875.408,384.012 875.58,384.012C876.128,384.012 876.578,384.462 876.578,385.01C876.578,385.37 876.384,385.703 876.07,385.88L876.07,385.88Z" style="fill:rgb(63,61,86);fill-rule:nonzero;"/>
        </g>
        <g transform="matrix(0.347594,0,0,0.327445,-86.3042,103.504)">
            <path d="M483.575,269.5L455.575,269.5C451.186,269.5 447.575,265.889 447.575,261.5C447.575,257.111 451.186,253.5 455.575,253.5L483.575,253.5C487.963,253.5 491.575,257.111 491.575,261.5C491.575,265.889 487.963,269.5 483.575,269.5Z" style="fill:rgb(134,153,135);fill-rule:nonzero;"/>
        </g>
        <g transform="matrix(0.347594,0,0,0.327445,-86.3042,103.504)">
            <path d="M516.575,296.5L455.575,296.5C451.186,296.5 447.575,292.889 447.575,288.5C447.575,284.111 451.186,280.5 455.575,280.5L516.575,280.5C520.963,280.5 524.575,284.111 524.575,288.5C524.575,292.889 520.963,296.5 516.575,296.5Z" style="fill:rgb(230,230,230);fill-rule:nonzero;"/>
        </g>
        <g transform="matrix(0.347594,0,0,0.327445,-86.3042,103.504)">
            <path d="M687,368.5L514,368.5C509.611,368.5 506,364.889 506,360.5C506,356.111 509.611,352.5 514,352.5L687,352.5C691.389,352.5 695,356.111 695,360.5C695,364.889 691.389,368.5 687,368.5Z" style="fill:rgb(134,153,135);fill-rule:nonzero;"/>
        </g>
        <g transform="matrix(0.347594,0,0,0.327445,-86.3042,103.504)">
            <path d="M703,399.5L497,399.5C492.611,399.5 489,395.889 489,391.5C489,387.111 492.611,383.5 497,383.5L703,383.5C707.389,383.5 711,387.111 711,391.5C711,395.889 707.389,399.5 703,399.5Z" style="fill:rgb(230,230,230);fill-rule:nonzero;"/>
        </g>
        <g transform="matrix(0.347594,0,0,0.327445,-86.3042,103.504)">
            <path d="M703,429.5L497,429.5C492.611,429.5 489,425.889 489,421.5C489,417.111 492.611,413.5 497,413.5L703,413.5C707.389,413.5 711,417.111 711,421.5C711,425.889 707.389,429.5 703,429.5Z" style="fill:rgb(230,230,230);fill-rule:nonzero;"/>
        </g>
    </g>
    <g transform="matrix(1,0,0,1,-172.5,-118.43)">
        <path d="M785.688,780.802L713.785,780.802L713.785,725.23L554.672,725.23C552.203,725.23 550.172,723.198 550.172,720.73C550.172,719.94 550.38,719.164 550.775,718.48L604.289,625.79L605.19,626.216L605.031,626.641C609.796,628.368 650.108,642.581 705.196,649.849C726.249,652.645 747.461,654.069 768.699,654.11C821.656,654.11 869.36,644.866 910.485,626.635L910.896,626.452L964.029,718.48C964.423,719.164 964.631,719.94 964.631,720.73C964.631,723.198 962.6,725.23 960.131,725.23L785.688,725.23L785.688,780.802Z" style="fill:rgb(134,153,135);fill-rule:nonzero;"/>
    </g>
    <g transform="matrix(1,0,0,1,-172.5,-118.43)">
        <path d="M763.619,345.191C737.393,345.046 711.298,341.486 685.991,334.602L685.382,334.422L695.53,318.846L663.725,318.846C661.256,318.845 659.225,316.814 659.225,314.345C659.225,313.556 659.433,312.78 659.827,312.096L704.062,235.48L704.934,235.969L704.726,236.35C721.204,244.173 739.212,248.248 757.452,248.281C774.335,248.342 790.991,244.375 806.033,236.709L805.612,233.896C755.273,259.701 706.791,234.421 704.745,233.328L704.29,233.085L757.401,143.092L854.977,312.096C855.372,312.78 855.58,313.556 855.58,314.345C855.58,316.814 853.548,318.845 851.08,318.846L819.274,318.846L829.401,334.388L828.849,334.596C807.709,342.541 784.787,345.191 763.619,345.191Z" style="fill:rgb(134,153,135);fill-rule:nonzero;"/>
    </g>
    <g transform="matrix(1,0,0,1,-172.5,-118.43)">
        <path d="M768.676,651.193C747.502,651.156 726.353,649.738 705.363,646.948C648.414,639.439 606.78,626.308 605.036,625.667L604.478,625.463L631.516,578.633L606.309,578.633C603.84,578.633 601.809,576.601 601.809,574.133C601.809,573.343 602.017,572.567 602.412,571.883L671.534,452.158L626.357,452.158C623.888,452.158 621.857,450.126 621.857,447.658C621.857,446.868 622.065,446.092 622.46,445.408L632.02,428.849L632.899,429.326L632.697,429.722C636.277,431.448 661.053,442.863 701.197,448.752C717.503,451.112 733.958,452.284 750.434,452.258C793.416,452.258 837.182,444.665 880.53,429.69L880.23,428.825C804.268,455.066 741.083,451.668 701.423,445.859C658.925,439.637 633.763,427.234 632.712,426.709L632.238,426.472L685.252,336.57L685.988,337.545C711.268,344.441 737.342,348.001 763.546,348.136C788.089,348.136 810.053,344.585 828.837,337.579L828.64,337.056L829.541,336.629L892.344,445.408C892.739,446.092 892.947,446.868 892.947,447.658C892.947,450.126 890.915,452.158 888.447,452.158L843.268,452.158L885.208,522.798L884.639,522.997C816.756,546.86 752.1,545.518 709.813,540.189C666.579,534.74 637.107,526.129 633.09,524.629L632.756,525.483C636.772,526.984 666.253,537.616 709.637,543.09C726.746,545.241 743.973,546.323 761.217,546.33C804.825,546.33 846.568,539.405 885.285,525.747L885.677,525.609L912.393,571.883C912.788,572.567 912.996,573.343 912.996,574.132C912.996,576.601 910.964,578.632 908.496,578.633L883.287,578.633L910.435,623.652L909.926,623.877C862.795,644.727 812.69,651.193 768.676,651.193Z" style="fill:rgb(134,153,135);fill-rule:nonzero;"/>
    </g>
    <circle cx="690.758" cy="352.238" r="17.593" style="fill:rgb(200,77,78);"/>
    <path d="M679.137,351.679L674.581,344.622L675.505,344.025L679.423,350.095L687.467,344.119L694.659,351.208L701.73,345.059L708.213,352.513L707.384,353.235L701.622,346.61L694.613,352.706L687.366,345.563L679.137,351.679Z" style="fill:rgb(204,204,204);fill-rule:nonzero;"/>
    <path d="M705.729,361.887L699.921,355.209L692.908,361.308L685.665,354.169L677.447,360.275L672.933,353.281L673.738,352.762L677.696,358.896L685.752,352.91L692.949,360.003L700.015,353.857L706.452,361.258L705.729,361.887Z" style="fill:rgb(204,204,204);fill-rule:nonzero;"/>
    <g transform="matrix(0.0694899,-0.997583,0.997583,0.0694899,185.822,1159.82)">
        <rect x="857.756" y="446.498" width="13.194" height="1.1" style="fill:rgb(204,204,204);"/>
    </g>
    <circle cx="456.012" cy="359.903" r="17.593" style="fill:rgb(200,77,78);"/>
    <path d="M444.39,359.344L439.835,352.287L440.759,351.69L444.677,357.761L452.721,351.784L459.913,358.873L466.984,352.724L473.467,360.178L472.638,360.9L466.876,354.275L459.867,360.371L452.62,353.228L444.39,359.344Z" style="fill:rgb(204,204,204);fill-rule:nonzero;"/>
    <path d="M470.983,369.552L465.175,362.874L458.161,368.973L450.918,361.834L442.701,367.94L438.187,360.946L438.992,360.427L442.95,366.561L451.006,360.575L458.203,367.668L465.269,361.522L471.706,368.923L470.983,369.552Z" style="fill:rgb(204,204,204);fill-rule:nonzero;"/>
    <g transform="matrix(0.0694903,-0.997583,0.997583,0.0694903,-40.261,932.769)">
        <rect x="623.008" y="454.164" width="13.194" height="1.1" style="fill:rgb(204,204,204);"/>
    </g>
    <circle cx="567.157" cy="169.232" r="17.593" style="fill:rgb(239,223,215);"/>
    <path d="M555.535,168.673L550.98,161.615L551.904,161.019L555.822,167.089L563.866,161.113L571.058,168.202L578.129,162.052L584.612,169.507L583.783,170.228L578.021,163.603L571.012,169.699L563.765,162.556L555.535,168.673Z" style="fill:rgb(204,204,204);fill-rule:nonzero;"/>
    <path d="M582.128,178.881L576.32,172.203L569.306,178.301L562.064,171.163L553.846,177.269L549.332,170.275L550.137,169.755L554.095,175.889L562.151,169.903L569.348,176.997L576.414,170.851L582.851,178.252L582.128,178.881Z" style="fill:rgb(204,204,204);fill-rule:nonzero;"/>
    <g transform="matrix(0.0694899,-0.997583,0.997583,0.0694899,253.374,866.224)">
        <rect x="734.155" y="263.492" width="13.194" height="1.1" style="fill:rgb(204,204,204);"/>
    </g>
    <circle cx="674.47" cy="483.505" r="17.593" style="fill:rgb(113,125,138);"/>
    <path d="M662.848,482.945L658.293,475.888L659.217,475.291L663.135,481.362L671.178,475.385L678.371,482.475L685.441,476.325L691.925,483.779L691.095,484.501L685.333,477.876L678.325,483.972L671.078,476.829L662.848,482.945Z" style="fill:rgb(204,204,204);fill-rule:nonzero;"/>
    <path d="M689.441,493.153L683.632,486.475L676.619,492.574L669.376,485.435L661.158,491.542L656.644,484.547L657.449,484.028L661.408,490.162L669.464,484.176L676.66,491.269L683.726,485.123L690.164,492.524L689.441,493.153Z" style="fill:rgb(204,204,204);fill-rule:nonzero;"/>
    <g transform="matrix(0.0694899,-0.997583,0.997583,0.0694899,39.7165,1265.71)">
        <rect x="841.467" y="577.764" width="13.194" height="1.1" style="fill:rgb(204,204,204);"/>
    </g>
    <circle cx="476.133" cy="548.659" r="17.593" style="fill:rgb(113,125,138);"/>
    <path d="M464.511,548.099L459.956,541.042L460.88,540.445L464.798,546.516L472.842,540.539L480.034,547.629L487.105,541.479L493.588,548.933L492.759,549.655L486.997,543.03L479.988,549.126L472.741,541.983L464.511,548.099Z" style="fill:rgb(204,204,204);fill-rule:nonzero;"/>
    <path d="M491.104,558.307L485.296,551.629L478.282,557.728L471.039,550.589L462.822,556.696L458.308,549.701L459.113,549.182L463.071,555.316L471.127,549.33L478.324,556.423L485.39,550.277L491.827,557.678L491.104,558.307Z" style="fill:rgb(204,204,204);fill-rule:nonzero;"/>
    <g transform="matrix(0.0694903,-0.997583,0.997583,0.0694903,-209.838,1128.48)">
        <rect x="643.129" y="642.92" width="13.194" height="1.1" style="fill:rgb(204,204,204);"/>
    </g>
    <circle cx="616.023" cy="271.754" r="17.593" style="fill:rgb(113,125,138);"/>
    <path d="M604.401,271.195L599.845,264.137L600.77,263.541L604.688,269.611L612.731,263.634L619.924,270.724L626.994,264.574L633.478,272.029L632.648,272.75L626.886,266.125L619.878,272.221L612.631,265.078L604.401,271.195Z" style="fill:rgb(204,204,204);fill-rule:nonzero;"/>
    <path d="M630.994,281.403L625.185,274.724L618.172,280.823L610.929,273.684L602.711,279.791L598.197,272.797L599.002,272.277L602.961,278.411L611.017,272.425L618.213,279.519L625.279,273.372L631.717,280.774L630.994,281.403Z" style="fill:rgb(204,204,204);fill-rule:nonzero;"/>
    <g transform="matrix(0.0694899,-0.997583,0.997583,0.0694899,196.57,1010.37)">
        <rect x="783.02" y="366.013" width="13.194" height="1.1" style="fill:rgb(204,204,204);"/>
    </g>
    <circle cx="566.199" cy="445.179" r="17.593" style="fill:rgb(239,223,215);"/>
    <path d="M554.577,444.619L550.022,437.562L550.946,436.965L554.864,443.036L562.908,437.059L570.1,444.149L577.171,437.999L583.654,445.453L582.825,446.175L577.063,439.55L570.054,445.646L562.807,438.503L554.577,444.619Z" style="fill:rgb(204,204,204);fill-rule:nonzero;"/>
    <path d="M581.17,454.827L575.362,448.149L568.348,454.248L561.105,447.109L552.888,453.216L548.374,446.221L549.179,445.702L553.137,451.836L561.193,445.85L568.39,452.943L575.456,446.797L581.893,454.198L581.17,454.827Z" style="fill:rgb(204,204,204);fill-rule:nonzero;"/>
    <g transform="matrix(0.0694899,-0.997583,0.997583,0.0694899,-22.7972,1122.04)">
        <rect x="733.196" y="539.438" width="13.194" height="1.1" style="fill:rgb(204,204,204);"/>
    </g>
    <g transform="matrix(1,0,0,1,-172.5,-118.43)">
        <path d="M767.52,158.544C766.978,158.542 766.451,158.363 766.02,158.035L757.123,151.359C756.605,150.969 755.889,150.958 755.36,151.332L746.26,157.73C745.839,158.026 745.337,158.185 744.823,158.185C743.451,158.185 742.322,157.056 742.322,155.685C742.322,155.41 742.368,155.137 742.457,154.876L746.057,144.351C746.268,143.738 746.058,143.054 745.538,142.665L736.641,135.989C736.012,135.517 735.641,134.776 735.641,133.989C735.641,132.618 736.77,131.489 738.141,131.489C738.154,131.489 738.167,131.489 738.18,131.49L749.303,131.661C749.951,131.673 750.536,131.261 750.745,130.647L754.345,120.122C754.675,119.086 755.662,118.391 756.749,118.431C757.833,118.436 758.792,119.156 759.1,120.196L762.374,130.827C762.563,131.447 763.136,131.876 763.784,131.885L774.906,132.057C776.263,132.078 777.368,133.2 777.368,134.557C777.368,135.37 776.971,136.134 776.306,136.602L767.207,143C766.676,143.372 766.444,144.049 766.636,144.668L769.91,155.3C770.24,156.333 769.852,157.467 768.958,158.081C768.538,158.38 768.035,158.542 767.52,158.544Z" style="fill:rgb(239,223,215);fill-rule:nonzero;"/>
    </g>
    <g transform="matrix(1,0,0,1,-86,0)">
        <g transform="matrix(1,0,0,1,-126.5,-129.43)">
            <path d="M467.752,745.57L451.252,745.57C448.765,745.565 446.388,744.535 444.684,742.723C442.973,740.91 442.097,738.459 442.271,735.972C442.673,731.197 446.752,727.5 451.543,727.57L455.252,727.57L455.252,707.57L477.252,707.57L477.252,736.07C477.246,741.279 472.961,745.564 467.752,745.57Z" style="fill:rgb(204,204,204);fill-rule:nonzero;"/>
        </g>
        <g transform="matrix(1,0,0,1,-126.5,-129.43)">
            <path d="M449.669,657.673L429.768,655.68C424.179,655.115 419.875,650.353 419.875,644.735C419.875,638.701 424.84,633.735 430.875,633.735C431.238,633.735 431.6,633.753 431.961,633.789L451.862,635.782C457.455,636.343 461.765,641.106 461.765,646.728C461.765,650.026 460.282,653.155 457.729,655.243C457.233,655.649 456.704,656.011 456.145,656.326C454.178,657.433 451.915,657.904 449.669,657.673Z" style="fill:rgb(204,204,204);fill-rule:nonzero;"/>
        </g>
        <g transform="matrix(1,0,0,1,46,-11)">
            <ellipse cx="306.752" cy="553.639" rx="41.5" ry="50" style="fill:rgb(230,230,230);"/>
        </g>
        <g transform="matrix(1,0,0,1,46,-11)">
            <ellipse cx="283.252" cy="548.539" rx="3" ry="5.1" style="fill:rgb(63,61,86);"/>
        </g>
        <g transform="matrix(1,0,0,1,46,-11)">
            <ellipse cx="282.252" cy="562.739" rx="3" ry="5.1" style="fill:rgb(63,61,86);"/>
        </g>
        <g transform="matrix(1,0,0,1,46,-11)">
            <circle cx="306.252" cy="482.639" r="32" style="fill:rgb(230,230,230);"/>
        </g>
        <g transform="matrix(1,0,0,1,-126.5,-129.43)">
            <path d="M505.752,591.57L452.752,591.57C449.188,591.566 446.256,588.634 446.252,585.07L446.252,580.07C446.252,563.227 463.303,547.57 481.752,547.57C500.201,547.57 511.252,563.227 511.252,580.07L511.252,586.07C511.249,589.086 508.768,591.566 505.752,591.57Z" style="fill:rgb(113,125,138);fill-rule:nonzero;"/>
        </g>
        <g transform="matrix(1,0,0,1,-126.5,-129.43)">
            <path d="M500.654,649.428L499.25,669.378C498.847,675.108 494.021,679.606 488.277,679.606C482.242,679.606 477.277,674.641 477.277,668.606C477.277,668.349 477.286,668.091 477.304,667.834L478.708,647.884C479.111,642.154 483.937,637.656 489.681,637.656C492.865,637.656 495.898,639.038 497.986,641.443C498.406,641.926 498.784,642.445 499.115,642.994C500.281,644.927 500.818,647.176 500.654,649.428Z" style="fill:rgb(204,204,204);fill-rule:nonzero;"/>
        </g>
        <g transform="matrix(1,0,0,1,-126.5,-129.43)">
            <path d="M486.065,700.028C480.597,699.643 476.303,695.036 476.303,689.554C476.303,689.308 476.311,689.062 476.328,688.817L476.221,687.676L474.564,689.491C474.09,690.012 473.418,690.31 472.714,690.31C471.342,690.31 470.214,689.181 470.214,687.81C470.214,687.184 470.449,686.581 470.872,686.12L475.587,680.956L474.872,673.375C474.861,673.25 474.855,673.125 474.855,672.999C474.855,670.875 476.547,669.102 478.67,669.004L496.634,668.173C496.696,668.17 496.758,668.168 496.819,668.168C499.014,668.168 500.819,669.974 500.819,672.168C500.819,672.431 500.793,672.694 500.742,672.952L497.277,690.291C496.872,696.037 491.811,700.432 486.065,700.028Z" style="fill:rgb(113,125,138);fill-rule:nonzero;"/>
        </g>
        <g transform="matrix(1,0,0,1,46,-11)">
            <circle cx="310.252" cy="429.639" r="8" style="fill:rgb(200,77,78);"/>
        </g>
        <g transform="matrix(1,0,0,1,46,-11)">
            <circle cx="298.752" cy="480.139" r="3" style="fill:rgb(63,61,86);"/>
        </g>
        <g transform="matrix(1,0,0,1,46,-11)">
            <circle cx="281.752" cy="480.139" r="3" style="fill:rgb(63,61,86);"/>
        </g>
        <g transform="matrix(1,0,0,1,-126.5,-129.43)">
            <path d="M504.252,745.57L487.752,745.57C482.543,745.564 478.258,741.279 478.252,736.07L478.252,707.57L500.252,707.57L500.252,727.57L503.961,727.57C508.752,727.5 512.831,731.197 513.233,735.972C513.407,738.459 512.531,740.91 510.82,742.723C509.116,744.535 506.739,745.566 504.252,745.57Z" style="fill:rgb(204,204,204);fill-rule:nonzero;"/>
        </g>
        <g transform="matrix(1,0,0,1,-126.5,-129.43)">
            <path d="M464.594,610.502C464.565,610.502 464.537,610.501 464.508,610.5L436.914,609.293C436.261,609.334 435.666,608.9 435.507,608.265C435.43,607.693 435.883,607.188 436.61,607.039L462.993,601.609C463.404,601.523 463.833,601.576 464.21,601.76C464.542,601.908 464.786,602.204 464.868,602.559L466.079,609.195C466.134,609.553 465.987,609.914 465.697,610.132C465.383,610.378 464.993,610.509 464.594,610.502Z" style="fill:rgb(255,101,132);fill-rule:nonzero;"/>
        </g>
        <g transform="matrix(1,0,0,1,-126.5,-129.43)">
            <path d="M465.39,613.687C461.255,613.687 457.378,611.055 457.378,613.259C457.378,615.464 461.255,621.67 465.39,621.67C469.525,621.67 473.252,617.317 473.252,615.113C473.252,612.908 469.525,613.687 465.39,613.687Z" style="fill:white;fill-rule:nonzero;"/>
        </g>
        <g transform="matrix(1,0,0,1,-125.5,-128.867)">
            <path d="M399.522,641.594C400.057,636.255 404.604,632.141 409.97,632.141C410.32,632.141 410.669,632.158 411.017,632.193L412.16,632.119L410.395,630.409C409.909,629.939 409.635,629.29 409.635,628.614C409.635,627.243 410.763,626.114 412.135,626.114C412.784,626.114 413.408,626.367 413.874,626.819L418.896,631.685L426.495,631.194C426.581,631.189 426.667,631.186 426.752,631.186C428.922,631.186 430.716,632.951 430.752,635.12L431.051,653.101C431.051,653.123 431.052,653.145 431.052,653.167C431.052,655.362 429.246,657.167 427.052,657.167C426.749,657.167 426.447,657.133 426.152,657.065L408.923,653.089C403.192,652.514 398.948,647.325 399.522,641.594Z" style="fill:rgb(113,125,138);fill-rule:nonzero;"/>
        </g>
    </g>
    <g transform="matrix(1,0,0,1,157.968,3.10567)">
        <g transform="matrix(1,0,0,1,-172.5,-118.43)">
            <path d="M358.632,666.706L345.403,651.706C343.632,649.697 342.653,647.109 342.653,644.43C342.653,638.395 347.619,633.43 353.654,633.43C356.809,633.43 359.817,634.787 361.904,637.154L375.132,652.154C376.904,654.163 377.882,656.751 377.882,659.43C377.882,665.464 372.917,670.43 366.882,670.43C366.652,670.43 366.422,670.423 366.193,670.409C365.554,670.369 364.919,670.274 364.296,670.125C362.1,669.598 360.121,668.403 358.632,666.706Z" style="fill:rgb(204,204,204);fill-rule:nonzero;"/>
        </g>
        <g transform="matrix(1,0,0,1,-172.5,-118.43)">
            <path d="M332.819,620.805L332.819,620.805C334.737,619.114 337.207,618.18 339.764,618.18C342.776,618.18 345.647,619.476 347.639,621.735L348.527,622.459L348.397,620.005C348.395,619.961 348.394,619.917 348.394,619.872C348.394,618.501 349.522,617.373 350.893,617.373C352.215,617.373 353.32,618.42 353.39,619.74L353.76,626.723L359.663,631.534C360.594,632.293 361.136,633.433 361.136,634.634C361.136,635.621 360.771,636.573 360.112,637.307L348.098,650.689C347.34,651.533 346.257,652.016 345.122,652.016C343.796,652.016 342.554,651.358 341.811,650.261L331.889,635.625C328.079,631.305 328.499,624.615 332.819,620.805Z" style="fill:rgb(200,77,78);fill-rule:nonzero;"/>
        </g>
        <g transform="matrix(0.885161,-0.465284,0.465284,0.885161,-464.245,130.667)">
            <ellipse cx="358.752" cy="715.57" rx="12.5" ry="19" style="fill:rgb(204,204,204);"/>
        </g>
        <ellipse cx="220.252" cy="567.139" rx="41.5" ry="50" style="fill:rgb(230,230,230);"/>
        <g transform="matrix(0.903831,-0.427889,0.427889,0.903831,-444.025,110.598)">
            <ellipse cx="373.752" cy="718.57" rx="12.5" ry="19" style="fill:rgb(204,204,204);"/>
        </g>
        <ellipse cx="183.752" cy="560.039" rx="3" ry="5.1" style="fill:rgb(63,61,86);"/>
        <g transform="matrix(0.264047,-0.96451,0.96451,0.264047,-549.959,717.826)">
            <ellipse cx="359.252" cy="665.47" rx="5.1" ry="3" style="fill:rgb(63,61,86);"/>
        </g>
        <ellipse cx="183.752" cy="573.239" rx="3" ry="5.1" style="fill:rgb(63,61,86);"/>
        <circle cx="219.752" cy="496.139" r="32" style="fill:rgb(230,230,230);"/>
        <g transform="matrix(1,0,0,1,-172.5,-118.43)">
            <path d="M419.252,605.07L366.252,605.07C362.688,605.066 359.756,602.134 359.752,598.57L359.752,593.57C359.752,576.727 373.803,543.07 392.252,543.07C410.701,543.07 424.752,576.727 424.752,593.57L424.752,599.57C424.749,602.586 422.268,605.066 419.252,605.07Z" style="fill:rgb(200,77,78);fill-rule:nonzero;"/>
        </g>
        <g transform="matrix(1,0,0,1,-172.5,-118.43)">
            <path d="M411.535,676.199C410.895,676.199 410.255,676.143 409.624,676.033C404.378,675.119 400.512,670.521 400.512,665.196C400.512,661.618 402.257,658.256 405.184,656.198L421.544,644.693C423.396,643.39 425.607,642.691 427.871,642.691C433.906,642.691 438.872,647.657 438.872,653.691C438.872,657.269 437.126,660.631 434.199,662.689L417.84,674.194C415.996,675.498 413.793,676.199 411.535,676.199Z" style="fill:rgb(204,204,204);fill-rule:nonzero;"/>
        </g>
        <g transform="matrix(1,0,0,1,-172.5,-118.43)">
            <path d="M453.637,635.571L453.637,635.571C451.673,632.777 448.464,631.111 445.048,631.111C442.887,631.111 440.777,631.779 439.008,633.022L437.976,633.519L438.674,631.163C438.744,630.931 438.779,630.69 438.779,630.448C438.779,629.077 437.65,627.948 436.279,627.948C435.173,627.948 434.193,628.682 433.881,629.742L431.894,636.447L425.033,639.75C423.65,640.415 422.768,641.82 422.768,643.354C422.768,644.019 422.934,644.674 423.251,645.259L431.816,661.072C432.514,662.361 433.867,663.167 435.333,663.167C436.331,663.167 437.293,662.794 438.03,662.121L451.089,650.2C455.8,646.886 456.951,640.283 453.637,635.571Z" style="fill:rgb(200,77,78);fill-rule:nonzero;"/>
        </g>
        <circle cx="217.752" cy="424.139" r="8" style="fill:rgb(113,125,138);"/>
        <circle cx="202.752" cy="493.139" r="3" style="fill:rgb(63,61,86);"/>
        <circle cx="191.752" cy="493.139" r="3" style="fill:rgb(63,61,86);"/>
        <g transform="matrix(1,0,0,1,-172.5,-118.43)">
            <path d="M373.39,627.687C369.255,627.687 365.378,625.055 365.378,627.259C365.378,629.464 369.255,635.67 373.39,635.67C377.525,635.67 381.252,631.317 381.252,629.113C381.252,626.908 377.525,627.687 373.39,627.687Z" style="fill:white;fill-rule:nonzero;"/>
        </g>
        <g transform="matrix(1,0,0,1,-172.5,-118.43)">
            <path d="M371.302,624.002C371.278,624.002 371.253,624.001 371.228,624L347.47,622.861C346.886,622.879 346.369,622.465 346.259,621.891C346.22,621.318 346.639,620.807 347.208,620.733L369.924,615.606C370.279,615.526 370.652,615.577 370.972,615.749C371.266,615.901 371.475,616.179 371.538,616.503L372.581,622.768C372.631,623.1 372.506,623.434 372.252,623.652C371.989,623.882 371.651,624.007 371.302,624.002Z" style="fill:rgb(255,101,132);fill-rule:nonzero;"/>
        </g>
    </g>
    <g transform="matrix(1,0,0,1,-172.5,-118.43)">
        <path d="M651.252,780.57L253.752,780.57C230.447,780.543 211.278,761.375 211.252,738.07C211.252,735.327 213.509,733.07 216.252,733.07C218.995,733.07 221.252,735.327 221.252,738.07C221.272,755.891 235.931,770.549 253.752,770.57L651.252,770.57C653.995,770.57 656.252,772.827 656.252,775.57C656.252,778.313 653.995,780.57 651.252,780.57Z" style="fill:rgb(63,61,86);fill-rule:nonzero;"/>
    </g>
    <g transform="matrix(1,0,0,1,-172.5,-118.43)">
        <path d="M611.752,734.57L279.752,734.57C275.638,734.57 272.252,737.955 272.252,742.07C272.252,746.184 275.638,749.57 279.752,749.57L312.252,749.57L312.252,767.57C312.252,772.507 316.315,776.57 321.252,776.57C326.189,776.57 330.252,772.507 330.252,767.57L330.252,749.57L435.252,749.57L435.252,767.57C435.252,772.507 439.315,776.57 444.252,776.57C449.189,776.57 453.252,772.507 453.252,767.57L453.252,749.57L558.252,749.57L558.252,767.57C558.252,772.507 562.315,776.57 567.252,776.57C572.189,776.57 576.252,772.507 576.252,767.57L576.252,749.57L611.752,749.57C615.866,749.57 619.252,746.184 619.252,742.07C619.252,737.955 615.866,734.57 611.752,734.57Z" style="fill:rgb(63,61,86);fill-rule:nonzero;"/>
    </g>
    <g transform="matrix(1,0,0,1,-172.5,-118.43)">
        <path d="M1026.5,781.57L173.5,781.57C172.951,781.57 172.5,781.118 172.5,780.57C172.5,780.021 172.951,779.57 173.5,779.57L1026.5,779.57C1027.05,779.57 1027.5,780.021 1027.5,780.57C1027.5,781.118 1027.05,781.57 1026.5,781.57Z" style="fill:rgb(204,204,204);fill-rule:nonzero;"/>
    </g>
</svg>
