<?xml version="1.0" encoding="UTF-8" standalone="no"?>
<!DOCTYPE svg PUBLIC "-//W3C//DTD SVG 1.1//EN" "http://www.w3.org/Graphics/SVG/1.1/DTD/svg11.dtd">
<svg width="100%" height="100%" viewBox="0 0 645 547" version="1.1" xmlns="http://www.w3.org/2000/svg" xmlns:xlink="http://www.w3.org/1999/xlink" xml:space="preserve" xmlns:serif="http://www.serif.com/" style="fill-rule:evenodd;clip-rule:evenodd;stroke-linejoin:round;stroke-miterlimit:2;">
    <g transform="matrix(1,0,0,1,-277.564,-176.5)">
        <path d="M864,665.5L336,665.5L336,440.5C336,295.673 455.174,176.5 600,176.5C744.826,176.5 864,295.673 864,440.5L864,665.5Z" style="fill:rgb(230,230,230);fill-rule:nonzero;"/>
    </g>
    <g transform="matrix(1,0,0,1,-277.564,-176.5)">
        <path d="M469.415,655.606L469.416,655.606C469.81,655.606 470.134,655.282 470.134,654.888L470.134,353.599C470.133,353.205 469.809,352.882 469.415,352.882C469.022,352.882 468.698,353.205 468.696,353.599L468.696,654.888C468.696,655.282 469.021,655.606 469.415,655.606Z" style="fill:rgb(63,61,86);fill-rule:nonzero;"/>
    </g>
    <g transform="matrix(1,0,0,1,-277.564,-176.5)">
        <path d="M469.415,411.765C469.606,411.765 469.789,411.689 469.924,411.554L504.536,376.966C504.67,376.831 504.746,376.648 504.746,376.458C504.746,376.064 504.422,375.739 504.027,375.739C503.837,375.739 503.653,375.815 503.519,375.95L468.907,410.538C468.772,410.673 468.696,410.856 468.696,411.046C468.696,411.44 469.021,411.765 469.415,411.765C469.415,411.765 469.415,411.765 469.415,411.765L469.415,411.765Z" style="fill:rgb(63,61,86);fill-rule:nonzero;"/>
    </g>
    <g transform="matrix(1,0,0,1,-277.564,-176.5)">
        <path d="M469.415,471.644C469.415,471.644 469.416,471.644 469.416,471.644C469.81,471.644 470.134,471.32 470.134,470.925C470.134,470.735 470.059,470.552 469.924,470.417L411.96,412.493C411.825,412.358 411.642,412.282 411.452,412.282C411.057,412.282 410.733,412.606 410.733,413.001C410.733,413.191 410.808,413.374 410.943,413.509L468.907,471.434C469.042,471.568 469.225,471.644 469.415,471.644Z" style="fill:rgb(63,61,86);fill-rule:nonzero;"/>
    </g>
    <g transform="matrix(1,0,0,1,-277.564,-176.5)">
        <path d="M556.864,442.999C556.864,394.735 517.712,280.208 469.415,280.208C421.119,280.208 381.967,394.735 381.967,442.999C382.003,490.946 421.468,530.381 469.415,530.381C517.363,530.381 556.827,490.946 556.864,442.999Z" style="fill:rgb(134,153,135);fill-rule:nonzero;"/>
    </g>
    <g transform="matrix(1,0,0,1,-277.564,-176.5)">
        <path d="M426.707,311.588C448.342,321.052 472.214,324.224 495.569,320.737C502.07,319.766 508.481,318.268 514.739,316.256L513.045,314.053C503.025,330.073 490.125,344.1 474.997,355.421C459.944,366.742 443,375.303 424.957,380.704C414.802,383.736 404.355,385.684 393.79,386.513C392.975,386.539 392.318,387.217 392.318,388.033C392.318,388.42 392.465,388.792 392.73,389.074C407.683,405.563 426.418,418.177 447.32,425.83C482.474,438.534 521.348,436.259 554.78,419.539L552.728,417.487C541.047,437.545 524.693,454.489 505.061,466.872C485.553,479.357 463.466,487.258 440.465,489.977C427.57,491.48 414.529,491.176 401.72,489.073C399.831,488.757 399.019,491.648 400.922,491.966C424.295,495.742 448.238,493.829 470.715,486.391C493.24,479.07 513.812,466.733 530.879,450.31C540.448,441.068 548.675,430.529 555.318,419.001C555.44,418.779 555.503,418.53 555.503,418.276C555.503,417.447 554.82,416.764 553.991,416.764C553.737,416.764 553.488,416.828 553.266,416.949C532.1,427.465 508.532,432.218 484.945,430.727C450.386,428.371 418.062,412.665 394.851,386.953L393.791,389.513C413.016,387.976 431.795,382.907 449.184,374.562C466.59,366.258 482.369,354.904 495.774,341.038C503.27,333.268 509.927,324.731 515.635,315.567C515.76,315.342 515.825,315.09 515.825,314.833C515.825,314.002 515.141,313.318 514.309,313.318C514.185,313.318 514.062,313.333 513.941,313.363C492.079,320.329 468.689,320.998 446.464,315.291C440.223,313.691 434.122,311.586 428.221,308.997C426.471,308.227 424.942,310.811 426.707,311.588L426.707,311.588Z" style="fill:rgb(242,242,242);fill-rule:nonzero;"/>
    </g>
    <circle cx="165.436" cy="140" r="4.5" style="fill:rgb(200,77,78);"/>
    <circle cx="197.436" cy="143" r="4.5" style="fill:rgb(200,77,78);"/>
    <circle cx="225.436" cy="155" r="4.5" style="fill:rgb(200,77,78);"/>
    <circle cx="201.436" cy="176" r="4.5" style="fill:rgb(200,77,78);"/>
    <circle cx="174.436" cy="196" r="4.5" style="fill:rgb(200,77,78);"/>
    <circle cx="136.436" cy="209" r="4.5" style="fill:rgb(200,77,78);"/>
    <circle cx="156.436" cy="242" r="4.5" style="fill:rgb(200,77,78);"/>
    <circle cx="202.436" cy="256" r="4.5" style="fill:rgb(200,77,78);"/>
    <circle cx="202.436" cy="256" r="4.5" style="fill:rgb(200,77,78);"/>
    <circle cx="242.436" cy="254" r="4.5" style="fill:rgb(200,77,78);"/>
    <circle cx="229.436" cy="292" r="4.5" style="fill:rgb(200,77,78);"/>
    <circle cx="188.436" cy="309" r="4.5" style="fill:rgb(200,77,78);"/>
    <circle cx="145.436" cy="317" r="4.5" style="fill:rgb(200,77,78);"/>
    <circle cx="195.936" cy="73.5" r="10" style="fill:white;"/>
    <circle cx="505.936" cy="256.5" r="10" style="fill:white;"/>
    <circle cx="125.936" cy="376.5" r="10" style="fill:white;"/>
    <circle cx="278.936" cy="87.5" r="10" style="fill:white;"/>
    <circle cx="547.936" cy="418.5" r="10" style="fill:white;"/>
    <circle cx="359.936" cy="285.5" r="10" style="fill:white;"/>
    <circle cx="389.936" cy="186.5" r="10" style="fill:white;"/>
    <circle cx="251.936" cy="398.5" r="10" style="fill:white;"/>
    <g transform="matrix(1,0,0,1,-277.564,-176.5)">
        <path d="M722.695,646.128L706.195,646.128C703.709,646.124 701.331,645.093 699.628,643.282C697.916,641.468 697.041,639.018 697.215,636.53C697.616,631.755 701.695,628.058 706.487,628.128L710.195,628.128L710.195,608.128L732.195,608.128L732.195,636.628C732.189,641.837 727.905,646.122 722.695,646.128Z" style="fill:white;fill-rule:nonzero;"/>
    </g>
    <g transform="matrix(1,0,0,1,-277.564,-176.5)">
        <path d="M717.417,557.232L697.516,555.238C691.927,554.673 687.623,549.912 687.623,544.294C687.623,538.259 692.589,533.293 698.623,533.293C698.986,533.293 699.348,533.311 699.709,533.347L719.61,535.341C725.203,535.901 729.513,540.664 729.513,546.286C729.513,549.584 728.03,552.713 725.477,554.801C724.982,555.207 724.452,555.569 723.893,555.884C721.926,556.992 719.663,557.463 717.417,557.232Z" style="fill:white;fill-rule:nonzero;"/>
    </g>
    <g transform="matrix(1,0,0,1,-277.564,-176.5)">
        <path d="M667.27,541.152L667.27,541.152C667.805,535.813 672.352,531.699 677.718,531.699C678.068,531.699 678.417,531.716 678.765,531.751L679.908,531.678L678.143,529.967C677.655,529.497 677.38,528.847 677.38,528.169C677.38,526.798 678.508,525.669 679.879,525.669C680.53,525.669 681.156,525.923 681.622,526.377L686.645,531.243L694.243,530.753C694.329,530.747 694.415,530.744 694.501,530.744C696.67,530.744 698.464,532.509 698.5,534.678L698.799,552.659C698.8,552.681 698.8,552.704 698.8,552.726C698.8,554.92 696.994,556.726 694.8,556.726C694.497,556.726 694.195,556.691 693.9,556.623L676.671,552.647C670.94,552.072 666.696,546.884 667.27,541.152Z" style="fill:rgb(63,61,86);fill-rule:nonzero;"/>
    </g>
    <ellipse cx="456.631" cy="396.128" rx="41.5" ry="50" style="fill:white;"/>
    <ellipse cx="433.131" cy="391.028" rx="3" ry="5.1" style="fill:rgb(63,61,86);"/>
    <ellipse cx="432.131" cy="405.228" rx="3" ry="5.1" style="fill:rgb(63,61,86);"/>
    <circle cx="456.131" cy="325.128" r="32" style="fill:white;"/>
    <g transform="matrix(1,0,0,1,-277.564,-176.5)">
        <path d="M760.695,492.128L707.695,492.128C704.131,492.124 701.199,489.192 701.195,485.628L701.195,480.628C701.195,463.785 718.246,448.128 736.695,448.128C755.145,448.128 766.195,463.785 766.195,480.628L766.195,486.628C766.192,489.644 763.711,492.125 760.695,492.128Z" style="fill:rgb(63,61,86);fill-rule:nonzero;"/>
    </g>
    <circle cx="460.131" cy="272.128" r="8" style="fill:rgb(200,77,78);"/>
    <circle cx="448.631" cy="322.628" r="3" style="fill:rgb(63,61,86);"/>
    <circle cx="431.631" cy="322.628" r="3" style="fill:rgb(63,61,86);"/>
    <g transform="matrix(1,0,0,1,-277.564,-176.5)">
        <path d="M759.195,646.128L742.695,646.128C737.486,646.122 733.201,641.837 733.195,636.628L733.195,608.128L755.195,608.128L755.195,628.128L758.904,628.128C763.695,628.058 767.775,631.755 768.176,636.53C768.35,639.018 767.474,641.468 765.763,643.282C764.06,645.093 761.682,646.124 759.195,646.128Z" style="fill:white;fill-rule:nonzero;"/>
    </g>
    <g transform="matrix(1,0,0,1,-277.564,-176.5)">
        <path d="M719.537,511.06C719.509,511.06 719.48,511.06 719.451,511.058L691.857,509.851C691.204,509.893 690.61,509.458 690.451,508.824C690.373,508.251 690.827,507.746 691.553,507.597L717.936,502.167C718.348,502.081 718.776,502.135 719.154,502.318C719.486,502.467 719.729,502.763 719.811,503.117L721.022,509.753C721.077,510.112 720.93,510.473 720.64,510.69C720.326,510.936 719.936,511.067 719.537,511.06Z" style="fill:rgb(255,101,132);fill-rule:nonzero;"/>
    </g>
    <g transform="matrix(1,0,0,1,-277.564,-176.5)">
        <path d="M720.334,514.245C716.198,514.245 712.321,511.613 712.321,513.818C712.321,516.022 716.198,522.229 720.334,522.229C724.469,522.229 728.195,517.875 728.195,515.671C728.195,513.466 724.469,514.245 720.334,514.245Z" style="fill:rgb(230,230,230);fill-rule:nonzero;"/>
    </g>
    <g transform="matrix(-1,0,0,1,1215.37,-181.49)">
        <path d="M733.058,565.463L713.959,571.397C712.904,571.724 711.805,571.891 710.701,571.891C704.666,571.891 699.7,566.925 699.7,560.891C699.7,556.088 702.846,551.815 707.431,550.387L726.53,544.453C727.587,544.125 728.687,543.958 729.794,543.958C735.829,543.958 740.794,548.924 740.794,554.958C740.794,556.742 740.36,558.5 739.53,560.078C739.232,560.646 738.886,561.186 738.495,561.694C737.116,563.482 735.216,564.799 733.058,565.463Z" style="fill:rgb(242,242,242);fill-rule:nonzero;"/>
    </g>
    <g transform="matrix(-1,0,0,1,1215.37,-181.49)">
        <path d="M680.614,570.238C680.301,569.229 680.141,568.179 680.141,567.123C680.141,562.537 683.146,558.456 687.526,557.096L688.55,556.581L686.257,555.696C685.295,555.325 684.658,554.395 684.658,553.364C684.658,551.993 685.786,550.864 687.158,550.864C687.466,550.864 687.771,550.921 688.058,551.032L694.582,553.551L701.386,550.133C701.943,549.853 702.558,549.708 703.181,549.708C704.76,549.708 706.197,550.642 706.837,552.085L714.133,568.522C714.36,569.033 714.477,569.586 714.477,570.145C714.477,572.079 713.075,573.749 711.171,574.084L693.756,577.15C688.256,578.859 682.323,575.739 680.614,570.238Z" style="fill:rgb(63,61,86);fill-rule:nonzero;"/>
    </g>
    <g transform="matrix(1,0,0,1,-277.564,-176.5)">
        <path d="M522.163,647.874L489.986,647.874C487.888,647.872 486.162,646.146 486.159,644.047L486.159,614.43C486.162,612.331 487.888,610.605 489.986,610.603L522.163,610.603C524.262,610.605 525.988,612.331 525.99,614.43L525.99,644.047C525.988,646.146 524.262,647.872 522.163,647.874Z" style="fill:rgb(134,153,135);fill-rule:nonzero;"/>
    </g>
    <g transform="matrix(1,0,0,1,-277.564,-176.5)">
        <path d="M508.409,649.055L503.741,649.055C502.63,649.054 501.716,648.14 501.715,647.029L501.715,611.644C501.716,610.533 502.63,609.619 503.741,609.618L508.409,609.618C509.52,609.619 510.433,610.533 510.435,611.644L510.435,647.029C510.433,648.14 509.52,649.054 508.409,649.055Z" style="fill:rgb(63,61,86);fill-rule:nonzero;"/>
    </g>
    <g transform="matrix(1,0,0,1,-277.564,-176.5)">
        <path d="M504.889,602.469C507.53,604.735 506.721,610.009 506.721,610.009C506.721,610.009 501.631,611.608 498.99,609.342C496.349,607.076 497.158,601.802 497.158,601.802C497.158,601.802 502.248,600.202 504.889,602.469Z" style="fill:rgb(63,61,86);fill-rule:nonzero;"/>
    </g>
    <g transform="matrix(1,0,0,1,-277.564,-176.5)">
        <path d="M513.655,608.844C511.397,611.492 506.121,610.7 506.121,610.7C506.121,610.7 504.506,605.614 506.764,602.967C509.022,600.319 514.298,601.111 514.298,601.111C514.298,601.111 515.914,606.196 513.655,608.844Z" style="fill:rgb(63,61,86);fill-rule:nonzero;"/>
    </g>
    <g transform="matrix(1,0,0,1,-277.564,-176.5)">
        <path d="M440.157,648.181L416.333,648.181C414.78,648.179 413.502,646.901 413.5,645.347L413.5,623.419C413.502,621.865 414.78,620.587 416.333,620.586L440.157,620.586C441.711,620.587 442.988,621.865 442.99,623.419L442.99,645.347C442.988,646.901 441.711,648.179 440.157,648.181Z" style="fill:rgb(134,153,135);fill-rule:nonzero;"/>
    </g>
    <g transform="matrix(1,0,0,1,-277.564,-176.5)">
        <path d="M429.973,649.055L426.517,649.055C425.694,649.054 425.018,648.378 425.017,647.555L425.017,621.357C425.018,620.534 425.694,619.858 426.517,619.857L429.973,619.857C430.796,619.858 431.472,620.534 431.473,621.357L431.473,647.555C431.472,648.378 430.796,649.054 429.973,649.055Z" style="fill:rgb(63,61,86);fill-rule:nonzero;"/>
    </g>
    <g transform="matrix(1,0,0,1,-277.564,-176.5)">
        <path d="M427.367,614.563C429.322,616.241 428.724,620.146 428.724,620.146C428.724,620.146 424.955,621.33 423,619.652C421.045,617.974 421.643,614.069 421.643,614.069C421.643,614.069 425.412,612.885 427.367,614.563Z" style="fill:rgb(63,61,86);fill-rule:nonzero;"/>
    </g>
    <g transform="matrix(1,0,0,1,-277.564,-176.5)">
        <path d="M433.858,619.283C432.186,621.244 428.279,620.657 428.279,620.657C428.279,620.657 427.083,616.892 428.755,614.932C430.427,612.972 434.334,613.558 434.334,613.558C434.334,613.558 435.53,617.323 433.858,619.283Z" style="fill:rgb(63,61,86);fill-rule:nonzero;"/>
    </g>
    <g transform="matrix(1,0,0,1,-277.564,-176.5)">
        <path d="M903.935,723.5L296.065,723.5C285.916,723.5 277.565,715.149 277.565,705C277.565,704.034 277.641,703.069 277.792,702.115L284.107,662.115C285.487,653.143 293.304,646.463 302.381,646.5L897.619,646.5C906.696,646.464 914.513,653.143 915.893,662.115L922.209,702.115C922.359,703.069 922.435,704.034 922.435,705C922.435,715.149 914.084,723.5 903.935,723.5Z" style="fill:rgb(63,61,86);fill-rule:nonzero;"/>
    </g>
</svg>
